# AST/ASF file generated using VICON BodyLanguage
# -----------------------------------------------
:version 1.10
:name VICON
:units
  mass 1.0
  length 0.45
  angle deg
:documentation
   .ast/.asf automatically generated from VICON data using
   VICON BodyBuilder and BodyLanguage model FoxedUp or BRILLIANT.MOD
:root
   order TX TY TZ RX RY RZ
   axis XYZ
   position 0 0 0  
   orientation 0 0 0 
:bonedata
  begin
     id 1 
     name lhipjoint
     direction 0.702568 -0.596508 0.388042 
     length 2.56661 
     axis 0 0 0  XYZ
  end
  begin
     id 2 
     name lfemur
     direction 0.34202 -0.939693 0  
     length 6.58374  
     axis 0 0 20  XYZ
    dof rx ry rz
    limits (-160.0 20.0)
           (-70.0 70.0)
           (-60.0 70.0)
  end
  begin
     id 3 
     name ltibia
     direction 0.34202 -0.939693 0   
     length 6.62538   
     axis 0 0 20   XYZ
    dof rx
    limits (-10.0 170.0)
  end
  begin
     id 4 
     name lfoot
     direction 0.10455 -0.287249 0.952133   
     length 2.26699   
     axis -90 7.62852e-016 20   XYZ
    dof rx rz
    limits (-45.0 90.0)
           (-70.0 20.0)
  end
  begin
     id 5 
     name ltoes
     direction 1.53572e-011 -4.22322e-011 1   
     length 1.12949   
     axis -90 7.62852e-016 20   XYZ
    dof rx
    limits (-90.0 20.0)
  end
  begin
     id 6 
     name rhipjoint
     direction -0.728055 -0.574632 0.373811   
     length 2.66432  
     axis 0 0 0  XYZ 
  end
  begin
     id 7 
     name rfemur
     direction -0.34202 -0.939693 0   
     length 6.66732   
     axis 0 0 -20   XYZ
    dof rx ry rz
    limits (-160.0 20.0)
           (-70.0 70.0)
           (-70.0 60.0)
  end
  begin
     id 8 
     name rtibia
     direction -0.34202 -0.939693 0   
     length 6.59288   
     axis 0 0 -20   XYZ
    dof rx
    limits (-10.0 170.0)
 end
 begin
     id 9 
     name rfoot
     direction -0.119193 -0.327479 0.93731   
     length 2.38061  
     axis -90 -7.62852e-016 -20   XYZ
    dof rx rz
    limits (-45.0 90.0)
           (-20.0 70.0)
  end
  begin
     id 10 
     name rtoes
     direction -1.53547e-011 -4.21827e-011 1   
     length 1.17899   
     axis -90 -7.62852e-016 -20   XYZ
    dof rx
    limits (-90.0 20.0)
  end
  begin
     id 11 
     name lowerback
     direction -0.000416114 0.999912 -0.0132284   
     length 2.12109   
     axis 0 0 0   XYZ
    dof rx ry rz
    limits (-20.0 45.0)
           (-30.0 30.0)
           (-30.0 30.0)
  end
  begin
     id 12 
     name upperback
     direction -0.00136371 0.99809 0.0617608   
     length 2.10067   
     axis 0 0 0   XYZ
    dof rx ry rz
    limits (-20.0 45.0)
           (-30.0 30.0)
           (-30.0 30.0)
  end
  begin
     id 13 
     name thorax
     direction -3.43026e-005 0.997776 0.0666515   
     length 2.10618   
     axis 0 0 0   XYZ
    dof rx ry rz
    limits (-20.0 45.0)
           (-30.0 30.0)
           (-30.0 30.0)
  end
  begin
     id 14 
     name lowerneck
     direction 0.0398646 0.998418 0.0396592   
     length 1.83817   
     axis 0 0 0   XYZ
    dof rx ry rz
    limits (-20.0 45.0)
           (-30.0 30.0)
           (-30.0 30.0)
  end
  begin
     id 15 
     name upperneck
     direction -0.0367268 0.961527 -0.272244   
     length 1.81975   
     axis 0 0 0   XYZ
    dof rx ry rz
    limits (-20.0 45.0)
           (-30.0 30.0)
           (-30.0 30.0)
  end
  begin
     id 16
     name head
     direction -0.0182665 0.99536 -0.0944669  
     length 1.86026  
     axis 0 0 0   XYZ
    dof rx ry rz
    limits (-20.0 45.0)
           (-30.0 30.0)
           (-30.0 30.0)
  end
  begin
     id 17 
     name lclavicle
     direction 0.924239 0.361045 0.124212  
     length 3.26878  
     axis 0 0 0   XYZ
    dof ry rz
    limits (-20.0 10.0)
           (0.0 20.0)
  end
  begin
     id 18 
     name lhumerus
     direction 1 -4.48968e-011 -2.56583e-027   
     length 4.58538   
     axis 180 -30 -90   XYZ
    dof rx ry rz
    limits (-60.0 90.0)
           (-90.0 90.0)
           (-90.0 90.0)
  end
  begin
     id 19
     name lradius
     direction 1 -4.4898e-011 -5.50375e-027   
     length 2.68935   
     axis 180 -30 -90   XYZ
    dof rx
    limits (-10.0 170.0)
  end
  begin
     id 20
     name lwrist
     direction 1 -4.48939e-011 -1.48955e-026   
     length 1.34468   
     axis 9.0955e-015 90 90   XYZ
    dof ry
    limits (-180.0 0.0)
 end
  begin
     id 21 
     name lhand
     direction 1 -4.48936e-011 -2.97907e-026   
     length 0.585058   
     axis 1.90115e-014 90 90   XYZ
    dof rx rz
    limits (-90.0 90.0)
           (-45.0 45.0)
  end
  begin
     id 22 
     name lfingers
     direction 1 -4.49082e-011 -5.96235e-026   
     length 0.471689   
     axis 3.80223e-014 90 90   XYZ
    dof rx
    limits (0.0 90.0)
  end
  begin
     id 23
     name lthumb
     direction 0.707107 -6.3489e-011 0.707107   
     length 0.677253   
     axis -90 45 -3.84942e-014   XYZ
    dof rx rz
    limits (-45.0 45.0)
           (-45.0 45.0)
  end
  begin
     id 24 
     name rclavicle
     direction -0.923098 0.371783 0.0983239   
     length 3.19656  
     axis 0 0 0   XYZ 
    dof ry rz
    limits (-10.0 20.0)
           (-20.0 0.0)
  end
  begin
     id 25 
     name rhumerus
     direction -1 -4.48976e-011 -2.5492e-027  
     length 4.4745   
     axis 180 30 90   XYZ
    dof rx ry rz
    limits (-90.0 60.0)
           (-90.0 90.0)
           (-90.0 90.0)
  end
  begin
     id 26 
     name rradius
     direction -1 -4.48941e-011 -4.36555e-027   
     length 2.93896   
     axis 180 30 90   XYZ
    dof rx
    limits (-10.0 170.0)
  end
  begin
     id 27 
     name rwrist
     direction -1 -4.49044e-011 -1.49032e-026   
     length 1.46948   
     axis 9.0955e-015 -90 -90   XYZ
    dof ry
    limits (-180.0 0.0)
  end
  begin
     id 28
     name rhand
     direction -1 -4.48826e-011 -2.97749e-026   
     length 0.405092   
     axis 1.90115e-014 -90 -90   XYZ
    dof rx rz
    limits (-90.0 90.0)
           (-45.0 45.0)
  end
  begin
     id 29
     name rfingers
     direction -1 -4.49209e-011 -5.96602e-026   
     length 0.326596   
     axis 3.80223e-014 -90 -90   XYZ
    dof rx
    limits (0.0 90.0)
  end
  begin
     id 30
     name rthumb
     direction -0.707107 -6.34776e-011 0.707107   
     length 0.468928   
     axis -90 -45 3.84942e-014   XYZ
    dof rx rz
    limits (-45.0 45.0)
           (-45.0 45.0)
  end
:hierarchy
  begin
    root lhipjoint rhipjoint lowerback
    lhipjoint lfemur
    lfemur ltibia
    ltibia lfoot
    lfoot ltoes
    rhipjoint rfemur
    rfemur rtibia
    rtibia rfoot
    rfoot rtoes
    lowerback upperback
    upperback thorax
    thorax lowerneck lclavicle rclavicle
    lowerneck upperneck
    upperneck head
    lclavicle lhumerus
    lhumerus lradius
    lradius lwrist
    lwrist lhand lthumb
    lhand lfingers
    rclavicle rhumerus
    rhumerus rradius
    rradius rwrist
    rwrist rhand rthumb
    rhand rfingers
  end

#!OML:ASF H:\Punching\Project 1\Capture day 1\Session 1\female.ASF
:FULLY-SPECIFIED
:DEGREES
639
root 0.825408 14.5307 3.18266 16.7013 28.6437 1.1945
lowerback -0.175209 5.22946 2.44753
upperback -6.30847 7.17873 0.192096
thorax -6.18728 3.47135 -1.51612
lowerneck -10.1136 -9.90799 -1.81807
upperneck 17.8401 -15.2544 10.4082
head 8.17471 -6.37683 2.11242
rclavicle 7.55382e-015 -1.43125e-014
rhumerus 31.7301 1.2342 -60.072
rradius 56.794
rwrist -23.7856
rhand -15.7788 -28.4506
rfingers 7.12502
rthumb 10.4136 -58.1727
lclavicle 7.55382e-015 -1.43125e-014
lhumerus 27.4844 -45.0251 73.7547
lradius 134.526
lwrist 12.3024
lhand -21.1001 12.2035
lfingers 7.12502
lthumb 5.27768 42.1178
rfemur 18.3624 -17.5028 17.2551
rtibia -3.18055e-014
rfoot -23.931 -28.6754
rtoes -2.26831
lfemur -57.1034 -12.4552 -13.523
ltibia 46.4359
lfoot -5.14738 -3.48569
ltoes -3.74178
640
root 0.824799 14.5258 3.17889 16.6219 28.8801 1.03437
lowerback -0.287863 5.67672 2.80586
upperback -6.28325 7.78499 0.156507
thorax -6.02394 3.75796 -1.75444
lowerneck -9.87611 -10.2454 -1.86104
upperneck 17.6359 -15.6864 10.4452
head 8.09981 -6.59714 2.09332
rclavicle -2.08724e-015 7.95139e-016
rhumerus 34.258 -0.72601 -60.5907
rradius 48.8403
rwrist -19.8932
rhand -16.2327 -28.8172
rfingers 7.12502
rthumb 9.97571 -58.5608
lclavicle -2.08724e-015 7.95139e-016
lhumerus 27.5688 -45.1643 73.513
lradius 134.435
lwrist 11.8981
lhand -20.8255 11.9789
lfingers 7.12502
lthumb 5.54282 41.8864
rfemur 18.3843 -17.5753 17.4842
rtibia -2.22639e-014
rfoot -24.0082 -28.7638
rtoes -2.25696
lfemur -57.253 -12.5814 -13.3677
ltibia 46.5846
lfoot -5.12765 -3.45397
ltoes -3.65528
641
root 0.82439 14.5234 3.17523 16.5016 28.9593 0.828477
lowerback -0.341513 6.10752 3.17908
upperback -6.26834 8.36956 0.0980028
thorax -5.89342 4.03198 -2.02546
lowerneck -9.71685 -10.5156 -1.79033
upperneck 17.5302 -16.0595 10.4943
head 8.06059 -6.77257 2.06367
rclavicle 8.7664e-014 2.14687e-014
rhumerus 36.6506 -3.15784 -61.9133
rradius 41.3667
rwrist -15.3357
rhand -16.2158 -28.7505
rfingers 7.12502
rthumb 9.99196 -58.4933
lclavicle 8.7664e-014 2.14687e-014
lhumerus 27.6335 -45.3095 73.2553
lradius 134.351
lwrist 11.5599
lhand -20.6123 11.6852
lfingers 7.12502
lthumb 5.74871 41.5872
rfemur 18.3897 -17.488 17.7207
rtibia -8.90555e-014
rfoot -24.044 -28.865
rtoes -2.3449
lfemur -57.3477 -12.63 -13.164
ltibia 46.7437
lfoot -5.14347 -3.34278
ltoes -3.58872
642
root 0.82381 14.5235 3.17195 16.3468 28.8994 0.60034
lowerback -0.318822 6.51605 3.54969
upperback -6.2604 8.92539 0.011774
thorax -5.8033 4.29011 -2.32796
lowerneck -9.65015 -10.725 -1.64501
upperneck 17.5094 -16.3829 10.5946
head 8.062 -6.90621 2.03943
rclavicle -7.60351e-015 7.15625e-015
rhumerus 38.8978 -6.15676 -64.1605
rradius 34.7611
rwrist -9.99687
rhand -16.0378 -27.9969
rfingers 7.12502
rthumb 10.1637 -57.7314
lclavicle -7.60351e-015 7.15625e-015
lhumerus 27.6751 -45.4188 72.9509
lradius 134.338
lwrist 11.3287
lhand -20.4566 11.3993
lfingers 7.12502
lthumb 5.89901 41.2972
rfemur 18.3901 -17.2635 17.9446
rtibia 3.18055e-014
rfoot -24.0371 -28.9736
rtoes -2.52105
lfemur -57.3776 -12.6295 -12.9253
ltibia 46.8962
lfoot -5.18949 -3.14692
ltoes -3.56179
643
root 0.822997 14.5261 3.16914 16.1777 28.7251 0.383123
lowerback -0.225816 6.88509 3.88166
upperback -6.25806 9.42918 -0.0986839
thorax -5.75602 4.52232 -2.63991
lowerneck -9.66217 -10.871 -1.45748
upperneck 17.5476 -16.6508 10.7737
head 8.09783 -6.99656 2.03534
rclavicle -1.29036e-013 1.82882e-014
rhumerus 40.9837 -9.5783 -67.2469
rradius 29.3965
rwrist -3.98333
rhand -16.0387 -26.5886
rfingers 7.12502
rthumb 10.1628 -56.3232
lclavicle -1.29036e-013 1.82882e-014
lhumerus 27.6683 -45.4282 72.5839
lradius 134.447
lwrist 11.2416
lhand -20.3577 11.1562
lfingers 7.12502
lthumb 5.9945 41.0514
rfemur 18.3899 -16.933 18.1308
rtibia 4.13472e-014
rfoot -23.9979 -29.0846
rtoes -2.75951
lfemur -57.3409 -12.6092 -12.6768
ltibia 47.0204
lfoot -5.25433 -2.87121
ltoes -3.59784
644
root 0.821688 14.531 3.1668 16.0122 28.4553 0.194133
lowerback -0.0751059 7.20157 4.15283
upperback -6.2653 9.86315 -0.231852
thorax -5.75497 4.72048 -2.94856
lowerneck -9.72485 -10.9485 -1.22879
upperneck 17.6219 -16.853 11.0314
head 8.15514 -7.04094 2.05467
rclavicle 1.01678e-013 3.26007e-014
rhumerus 42.777 -12.98 -70.7303
rradius 25.5901
rwrist 2.13017
rhand -16.3642 -24.8052
rfingers 7.12502
rthumb 9.84876 -54.5549
lclavicle 1.01678e-013 3.26007e-014
lhumerus 27.63 -45.3347 72.165
lradius 134.68
lwrist 11.2983
lhand -20.2698 11.0259
lfingers 7.12502
lthumb 6.07939 40.9186
rfemur 18.3819 -16.5188 18.2728
rtibia -5.08889e-014
rfoot -23.9295 -29.2001
rtoes -3.03143
lfemur -57.2451 -12.59 -12.4259
ltibia 47.0988
lfoot -5.32676 -2.5169
ltoes -3.70016
